{"title":"Abandoned (2010) DVDRip XviD-SKITTLES","uid":5778684,"size":738021693,"categoryP":"video","categoryS":"movies","magnet":"?xt=urn:btih:43aaa6bb41553b6b6ee912e20f507b4fa496b5d5&amp;dn=Abandoned+%282010%29+DVDRip+XviD-SKITTLES&amp;tr=udp%3A%2F%2Ftracker.openbittorrent.com%3A80&amp;tr=udp%3A%2F%2Fopen.demonii.com%3A1337&amp;tr=udp%3A%2F%2Ftracker.coppersurfer.tk%3A6969&amp;tr=udp%3A%2F%2Fexodus.desync.com%3A6969","seeders":1,"leechers":0,"uploader":"SkittlesRG","files":-1,"time":1282338936,"description":"[img]http://leetleech.org/images/66986293147100248259.jpg[/img]\n\n[b]Abandoned (2010) DVDRip XviD-SKITTLES[/b]\n\n[img]http://leetleech.org/images/39185456263711143641.png[/img]\n\nVideo\nID                               : 0\nFormat                           : MPEG-4 Visual\nFormat profile                   : Advanced Simple@L5\nFormat settings, BVOP            : Yes\nFormat settings, QPel            : No\nFormat settings, GMC             : No warppoints\nFormat settings, Matrix          : Default (H.263)\nMuxing mode                      : Packed bitstream\nCodec ID                         : XVID\nCodec ID/Hint                    : XviD\nDuration                         : 1h 28mn\nBit rate                         : 980 Kbps\nWidth                            : 640 pixels\nHeight                           : 352 pixels\nDisplay aspect ratio             : 16:9\nFrame rate                       : 23.976 fps\nColor space                      : YUV\nChroma subsampling               : 4:2:0\nBit depth                        : 8 bits\nScan type                        : Progressive\nBits/(Pixel*Frame)               : 0.181\nStream size                      : 617 MiB (88%)\nWriting library                  : XviD 1.2.1 (UTC 2008-12-04)\n\nAudio\nID                               : 1\nFormat                           : MPEG Audio\nFormat version                   : Version 1\nFormat profile                   : Layer 3\nMode                             : Joint stereo\nMode extension                   : MS Stereo\nCodec ID                         : 55\nCodec ID/Hint                    : MP3\nDuration                         : 1h 28mn\nBit rate mode                    : Constant\nBit rate                         : 128 Kbps\nChannel(s)                       : 2 channels\nSampling rate                    : 48.0 KHz\nVideo delay                      : 1s 0ms\nStream size                      : 80.6 MiB (11%)\nAlignment                        : Split accross interleaves\nInterleave, duration             : 42 ms (1.00 video frame)\nInterleave, preload duration     : 500 ms\n &lt;a href=&quot;\nhttp://www.imdb.com/title/tt1470171/&quot; rel=&quot;nofollow&quot; target=&quot;_NEW&quot;&gt;\nhttp://www.imdb.com/title/tt1470171/&lt;/a&gt;\n\n[img]http://leetleech.org/images/46941880339015444838.png[/img]\n\nBrittany Murphy\t... \tMary\nDean Cain\t... \tKevin\n\n[img]http://leetleech.org/images/70187465700988366433.png[/img]\n\nGenre:\nDrama | Mystery | Thriller\n\nPlot:\nMary Walsh delivers boyfriend Kevin to a hospital for routine\noutpatient surgery. But when Mary returns to take him home...\n\n[img]http://leetleech.org/images/64476088802225496360.png[/img]\n\n[img]http://leetleech.org/images/95143578846287157928.png[/img]\n[img]http://leetleech.org/images/84872753521093054908.png[/img]\n[img]http://leetleech.org/images/51501394800487542117.png[/img]\n[img]http://leetleech.org/images/58360583146826578998.png[/img]\n[img]http://leetleech.org/images/68771907240845935886.png[/img]\n[img]http://leetleech.org/images/47024339497347085864.png[/img]","torrent":{"xt":"urn:btih:43aaa6bb41553b6b6ee912e20f507b4fa496b5d5","amp;dn":"Abandoned+%282010%29+DVDRip+XviD-SKITTLES","amp;tr":["udp%3A%2F%2Ftracker.openbittorrent.com%3A80","udp%3A%2F%2Fopen.demonii.com%3A1337","udp%3A%2F%2Ftracker.coppersurfer.tk%3A6969","udp%3A%2F%2Fexodus.desync.com%3A6969"],"infoHash":"43aaa6bb41553b6b6ee912e20f507b4fa496b5d5","infoHashBuffer":{"type":"Buffer","data":[67,170,166,187,65,85,59,107,110,233,18,226,15,80,123,79,164,150,181,213]},"announce":[],"urlList":[]}}